<svg width="512" height="451" viewBox="0 0 512 451" fill="none" xmlns="http://www.w3.org/2000/svg">
<path d="M333.087 85.2295C315.505 56.405 293.891 37.4552 271.043 31.8802L271.041 148.541C298.087 148.221 332.993 146.125 357.843 143.751C357.024 130.423 342.823 93.9555 333.087 85.2295ZM357.843 143.751C330.348 146.554 301.026 148.195 271.041 148.541L271.042 241.103C271.042 241.103 330.423 241.103 368.472 241.103C372 241.103 367.903 165.045 357.843 143.751ZM154.323 143.15C145.492 165.571 143.528 241.103 143.528 241.103H240.957L240.956 148.454C210.855 147.934 181.612 146.125 154.323 143.15ZM178.913 85.2295C171.833 95.4253 158.079 131.741 154.323 143.15C178.964 145.679 213.829 147.973 240.956 148.454L240.957 31.8802C218.109 37.4543 196.495 56.405 178.913 85.2295ZM143.528 241.103C143 273 157.703 326.215 168.793 350.451C194.053 347.47 211.548 346.052 240.956 345.231C240.956 304.566 240.957 281.767 240.957 241.103H143.528ZM479.475 118.22C463.838 123.612 457.564 125.834 455.541 126.595C456.348 126.371 457.166 126.152 457.963 125.925C458.462 125.784 452.642 127.687 455.541 126.595C435.763 132.066 412.821 136.624 387.754 140.147C394.034 163.624 397.736 188.85 398.627 214.897H512C509.733 180.529 498.578 147.624 479.475 118.22ZM113.431 241.102H0C2.691 281.884 17.914 320.598 44.059 353.855C52.744 349.389 62.809 345.37 74.235 341.821C89.963 336.936 108.289 332.786 128.709 329.413C119.854 302.249 114.629 272.276 113.431 241.102ZM54.796 124.363C51.852 123.484 43.358 120.878 33.227 117.161C13.7 146.834 2.294 180.113 0 214.897H113.374C114.275 188.543 118.05 163.024 124.465 139.312C98.425 135.427 74.811 130.404 54.796 124.363ZM74.663 70.0385C65.686 77.8592 57.46 86.1598 50.008 94.8707C54.604 96.4736 59.457 98.0511 64.496 99.5572L64.642 99.6008C83.987 105.438 107.036 110.27 132.594 113.963C138.092 99.2497 144.695 85.4751 152.346 72.9322C175.811 34.4621 206.854 10.3119 240.958 5C178.115 8.14552 119.537 30.9499 74.663 70.0385ZM152.346 381.544C147.17 373.059 142.479 364.004 138.277 354.485C117.864 357.708 99.707 361.733 84.338 366.507C75.691 369.194 68.562 371.986 62.671 374.774C66.51 378.599 70.499 382.335 74.662 385.962C119.535 425.051 178.113 447.854 240.956 451C206.854 445.687 175.811 420.014 152.346 381.544ZM437.337 70.0393C392.463 30.9499 333.885 8.14552 271.042 5C305.145 10.3119 336.187 34.4621 359.653 72.9331C367.441 85.6999 374.146 99.7402 379.701 114.749C405.344 111.268 428.642 106.671 448.35 101.09C450.512 100.373 453.919 99.0398 462.831 95.8655C455.159 86.7931 446.655 78.1562 437.337 70.0393ZM375.417 350.556C370.796 361.521 365.537 371.899 359.654 381.544C336.188 420.014 305.147 445.687 271.043 451C333.886 447.854 392.464 425.05 437.338 385.962C444.872 379.399 451.879 372.498 458.342 365.3C434.744 358.958 406.5 353.972 375.417 350.556ZM168.793 350.451C171.903 357.008 175.278 363.287 178.913 369.248C196.494 398.072 218.109 418.545 240.957 424.12L240.956 345.231C215.259 345.964 191.038 348.025 168.793 350.451ZM398.569 241.102C397.432 270.672 392.675 299.164 384.631 325.202C419.276 329.254 450.545 335.206 476.126 342.78C497.274 312.127 509.603 277.433 512 241.103L398.569 241.102ZM271.042 241.103V319.023C271.876 319.021 270.206 345.231 271.042 345.231C298.805 345.231 318.599 345.647 344.461 347.747C348.564 343.932 368.472 274 368.472 241.103C330.423 241.103 271.042 241.103 271.042 241.103ZM273.54 345.223C272.704 345.223 271.875 345.229 271.042 345.231V424.122C293.89 418.546 315.504 398.073 333.086 369.249C337.218 362.475 341.009 355.286 344.461 347.747C321.707 346.09 297.868 345.223 273.54 345.223Z" fill="white"/>
<path d="M368 330H299.125L245.64 253.552L220.216 275.185V330H166V149H220.216V216.041L293.751 149H367.051L283.551 221.382L368 330ZM306.771 319.395H344.265L267.077 220.116L336.882 159.605H299.647L207.104 243.976V159.605H179.113V319.395H207.104V270.949L248.333 235.866L306.771 319.395Z" fill="#020305"/>
</svg>
